<svg xmlns="http://www.w3.org/2000/svg" xmlns:xlink="http://www.w3.org/1999/xlink" width="1000" zoomAndPan="magnify" viewBox="0 0 750 374.999991" height="500" preserveAspectRatio="xMidYMid meet" version="1.0"><defs><g/><clipPath id="e1a4b0648a"><path d="M 1.632812 19.398438 L 130.910156 19.398438 L 130.910156 161.65625 L 1.632812 161.65625 Z M 1.632812 19.398438 " clip-rule="nonzero"/></clipPath><clipPath id="adfe91e890"><rect x="0" width="707" y="0" height="218"/></clipPath></defs><g transform="matrix(1, 0, 0, 1, 21, 85)"><g clip-path="url(#adfe91e890)"><g clip-path="url(#e1a4b0648a)"><path fill="#1a1a2e" d="M 130.640625 83.464844 L 121.046875 83.464844 C 114.84375 103.625 95.167969 113.707031 62.015625 113.707031 L 43.3125 113.707031 L 43.3125 161.492188 L 14.621094 161.492188 L 14.621094 83.464844 L 1.925781 83.464844 L 1.925781 70.671875 L 14.621094 70.671875 L 14.621094 62.433594 L 1.925781 62.433594 L 1.925781 49.640625 L 14.621094 49.640625 L 14.621094 19.398438 L 60.660156 19.398438 C 77.140625 19.398438 89.898438 21.238281 98.949219 24.921875 C 110.640625 29.640625 118.136719 37.878906 121.433594 49.636719 L 130.640625 49.636719 L 130.640625 62.433594 L 123.371094 62.433594 C 123.433594 63.855469 123.46875 65.050781 123.46875 66.019531 C 123.46875 68.089844 123.433594 69.640625 123.371094 70.671875 L 130.640625 70.671875 Z M 86.054688 49.636719 C 80.300781 45.503906 70.675781 43.433594 57.171875 43.433594 L 43.3125 43.433594 L 43.3125 49.636719 Z M 93.90625 66.40625 C 93.90625 65.050781 93.8125 63.726562 93.617188 62.433594 L 43.3125 62.433594 L 43.3125 70.671875 L 93.617188 70.671875 C 93.808594 69.507812 93.90625 68.089844 93.90625 66.40625 Z M 85.472656 83.464844 L 43.3125 83.464844 L 43.3125 89.574219 L 59.011719 89.574219 C 70.773438 89.574219 79.59375 87.539062 85.472656 83.464844 Z M 85.472656 83.464844 " fill-opacity="1" fill-rule="nonzero"/></g><g fill="#1a1a2e" fill-opacity="1"><g transform="translate(110.906002, 160.186269)"><g><path d="M 48.4375 2.09375 C 40.0625 2.09375 32.660156 0.347656 26.234375 -3.140625 C 19.804688 -6.628906 14.796875 -11.488281 11.203125 -17.71875 C 7.617188 -23.945312 5.828125 -31.144531 5.828125 -39.3125 C 5.828125 -47.488281 7.644531 -54.664062 11.28125 -60.84375 C 14.925781 -67.019531 19.960938 -71.851562 26.390625 -75.34375 C 32.816406 -78.832031 40.265625 -80.578125 48.734375 -80.578125 C 57.703125 -80.578125 65.445312 -78.582031 71.96875 -74.59375 C 78.5 -70.601562 83.484375 -65.019531 86.921875 -57.84375 C 90.359375 -50.675781 91.828125 -42.304688 91.328125 -32.734375 L 28.40625 -32.734375 C 29.5 -27.359375 31.890625 -23.25 35.578125 -20.40625 C 39.265625 -17.5625 43.695312 -16.140625 48.875 -16.140625 C 52.664062 -16.140625 56.128906 -16.863281 59.265625 -18.3125 C 62.410156 -19.757812 64.925781 -21.773438 66.8125 -24.359375 L 89.84375 -24.359375 C 86.445312 -16.085938 81.113281 -9.609375 73.84375 -4.921875 C 66.570312 -0.242188 58.101562 2.09375 48.4375 2.09375 Z M 28.546875 -47.09375 L 69.359375 -47.09375 C 68.066406 -51.875 65.648438 -55.632812 62.109375 -58.375 C 58.566406 -61.113281 54.15625 -62.484375 48.875 -62.484375 C 43.894531 -62.484375 39.585938 -61.113281 35.953125 -58.375 C 32.316406 -55.632812 29.847656 -51.875 28.546875 -47.09375 Z M 28.546875 -47.09375 "/></g></g></g><g fill="#1a1a2e" fill-opacity="1"><g transform="translate(198.799416, 160.186269)"><g><path d="M 41.5625 2.09375 C 34.382812 2.09375 28.128906 0.945312 22.796875 -1.34375 C 17.460938 -3.632812 13.328125 -6.820312 10.390625 -10.90625 C 7.453125 -15 5.984375 -19.785156 5.984375 -25.265625 L 28.25 -25.265625 C 28.351562 -22.078125 29.597656 -19.535156 31.984375 -17.640625 C 34.378906 -15.742188 37.671875 -14.796875 41.859375 -14.796875 C 45.441406 -14.796875 48.226562 -15.46875 50.21875 -16.8125 C 52.21875 -18.15625 53.21875 -19.972656 53.21875 -22.265625 C 53.21875 -24.765625 51.867188 -26.832031 49.171875 -28.46875 C 46.484375 -30.113281 42.101562 -31.4375 36.03125 -32.4375 C 26.0625 -34.226562 18.734375 -37.117188 14.046875 -41.109375 C 9.367188 -45.097656 7.03125 -50.328125 7.03125 -56.796875 C 7.03125 -64.472656 9.894531 -70.351562 15.625 -74.4375 C 21.351562 -78.53125 29.5 -80.578125 40.0625 -80.578125 C 50.519531 -80.578125 58.710938 -78.332031 64.640625 -73.84375 C 70.578125 -69.363281 73.796875 -62.988281 74.296875 -54.71875 L 52.625 -54.71875 C 52.414062 -57.707031 51.191406 -60.019531 48.953125 -61.65625 C 46.710938 -63.300781 43.695312 -64.125 39.90625 -64.125 C 36.519531 -64.125 33.851562 -63.476562 31.90625 -62.1875 C 29.96875 -60.894531 29 -59.097656 29 -56.796875 C 29 -54.410156 30.269531 -52.546875 32.8125 -51.203125 C 35.351562 -49.859375 39.960938 -48.488281 46.640625 -47.09375 C 65.972656 -43.195312 75.640625 -34.875 75.640625 -22.125 C 75.640625 -14.644531 72.625 -8.738281 66.59375 -4.40625 C 60.5625 -0.0703125 52.21875 2.09375 41.5625 2.09375 Z M 41.5625 2.09375 "/></g></g></g><g fill="#1a1a2e" fill-opacity="1"><g transform="translate(271.445961, 160.186269)"><g><path d="M 49.921875 2.09375 C 41.253906 2.09375 33.609375 0.347656 26.984375 -3.140625 C 20.359375 -6.628906 15.175781 -11.488281 11.4375 -17.71875 C 7.695312 -23.945312 5.828125 -31.144531 5.828125 -39.3125 C 5.828125 -47.488281 7.695312 -54.664062 11.4375 -60.84375 C 15.175781 -67.019531 20.359375 -71.851562 26.984375 -75.34375 C 33.609375 -78.832031 41.253906 -80.578125 49.921875 -80.578125 C 58.597656 -80.578125 66.25 -78.832031 72.875 -75.34375 C 79.5 -71.851562 84.65625 -67.019531 88.34375 -60.84375 C 92.03125 -54.664062 93.875 -47.488281 93.875 -39.3125 C 93.875 -31.144531 92.03125 -23.945312 88.34375 -17.71875 C 84.65625 -11.488281 79.5 -6.628906 72.875 -3.140625 C 66.25 0.347656 58.597656 2.09375 49.921875 2.09375 Z M 28.25 -39.3125 C 28.25 -32.9375 30.265625 -27.703125 34.296875 -23.609375 C 38.335938 -19.523438 43.546875 -17.484375 49.921875 -17.484375 C 56.304688 -17.484375 61.488281 -19.523438 65.46875 -23.609375 C 69.457031 -27.703125 71.453125 -32.9375 71.453125 -39.3125 C 71.453125 -45.789062 69.457031 -51.046875 65.46875 -55.078125 C 61.488281 -59.117188 56.304688 -61.140625 49.921875 -61.140625 C 43.546875 -61.140625 38.335938 -59.117188 34.296875 -55.078125 C 30.265625 -51.046875 28.25 -45.789062 28.25 -39.3125 Z M 28.25 -39.3125 "/></g></g></g><g fill="#1a1a2e" fill-opacity="1"><g transform="translate(362.02997, 160.186269)"><g><path d="M 35.125 0 L 1.5 -104.640625 L 26.75 -104.640625 L 36.765625 -72.796875 L 47.828125 -38.421875 L 59.796875 -72.796875 L 71 -104.640625 L 93.578125 -104.640625 L 104.78125 -72.796875 L 116.890625 -37.96875 L 128.109375 -72.796875 L 138.125 -104.640625 L 163.234375 -104.640625 L 129.453125 0 L 106.140625 0 L 82.359375 -67.71875 L 58.59375 0 Z M 35.125 0 "/></g></g></g><g fill="#1a1a2e" fill-opacity="1"><g transform="translate(507.173764, 160.186269)"><g><path d="M 37.515625 1.5 C 28.253906 1.5 20.929688 -0.664062 15.546875 -5 C 10.160156 -9.34375 7.46875 -15.300781 7.46875 -22.875 C 7.46875 -30.144531 9.882812 -35.945312 14.71875 -40.28125 C 19.550781 -44.613281 26.054688 -46.78125 34.234375 -46.78125 L 62.640625 -46.78125 L 62.640625 -50.375 C 62.640625 -54.257812 61.242188 -57.375 58.453125 -59.71875 C 55.660156 -62.0625 52.019531 -63.234375 47.53125 -63.234375 C 43.84375 -63.234375 40.703125 -62.382812 38.109375 -60.6875 C 35.523438 -59 33.882812 -56.757812 33.1875 -53.96875 L 11.359375 -53.96875 C 12.753906 -62.53125 16.613281 -69.101562 22.9375 -73.6875 C 29.269531 -78.28125 37.421875 -80.578125 47.390625 -80.578125 C 59.148438 -80.578125 68.34375 -77.609375 74.96875 -71.671875 C 81.59375 -65.742188 84.90625 -57.597656 84.90625 -47.234375 L 84.90625 0 L 68.015625 0 L 65.46875 -9.125 C 58.59375 -2.039062 49.273438 1.5 37.515625 1.5 Z M 29.890625 -23.765625 C 29.890625 -21.078125 31.0625 -18.910156 33.40625 -17.265625 C 35.75 -15.617188 38.863281 -14.796875 42.75 -14.796875 C 48.425781 -14.796875 53.132812 -16.441406 56.875 -19.734375 C 60.613281 -23.023438 62.582031 -27.3125 62.78125 -32.59375 L 41.25 -32.59375 C 37.863281 -32.59375 35.125 -31.789062 33.03125 -30.1875 C 30.9375 -28.59375 29.890625 -26.453125 29.890625 -23.765625 Z M 29.890625 -23.765625 "/></g></g></g><g fill="#1a1a2e" fill-opacity="1"><g transform="translate(592.82499, 160.186269)"><g><path d="M 11.359375 0 L 11.359375 -78.484375 L 34.078125 -78.484375 L 34.078125 0 Z M 8.078125 -103.890625 C 8.078125 -108.078125 9.445312 -111.488281 12.1875 -114.125 C 14.925781 -116.769531 18.4375 -118.09375 22.71875 -118.09375 C 27.101562 -118.09375 30.640625 -116.769531 33.328125 -114.125 C 36.023438 -111.488281 37.375 -108.078125 37.375 -103.890625 C 37.375 -99.703125 36.023438 -96.285156 33.328125 -93.640625 C 30.640625 -91.003906 27.101562 -89.6875 22.71875 -89.6875 C 18.4375 -89.6875 14.925781 -91.003906 12.1875 -93.640625 C 9.445312 -96.285156 8.078125 -99.703125 8.078125 -103.890625 Z M 8.078125 -103.890625 "/></g></g></g><g fill="#1a1a2e" fill-opacity="1"><g transform="translate(629.148168, 160.186269)"><g><path d="M 41.5625 2.09375 C 34.382812 2.09375 28.128906 0.945312 22.796875 -1.34375 C 17.460938 -3.632812 13.328125 -6.820312 10.390625 -10.90625 C 7.453125 -15 5.984375 -19.785156 5.984375 -25.265625 L 28.25 -25.265625 C 28.351562 -22.078125 29.597656 -19.535156 31.984375 -17.640625 C 34.378906 -15.742188 37.671875 -14.796875 41.859375 -14.796875 C 45.441406 -14.796875 48.226562 -15.46875 50.21875 -16.8125 C 52.21875 -18.15625 53.21875 -19.972656 53.21875 -22.265625 C 53.21875 -24.765625 51.867188 -26.832031 49.171875 -28.46875 C 46.484375 -30.113281 42.101562 -31.4375 36.03125 -32.4375 C 26.0625 -34.226562 18.734375 -37.117188 14.046875 -41.109375 C 9.367188 -45.097656 7.03125 -50.328125 7.03125 -56.796875 C 7.03125 -64.472656 9.894531 -70.351562 15.625 -74.4375 C 21.351562 -78.53125 29.5 -80.578125 40.0625 -80.578125 C 50.519531 -80.578125 58.710938 -78.332031 64.640625 -73.84375 C 70.578125 -69.363281 73.796875 -62.988281 74.296875 -54.71875 L 52.625 -54.71875 C 52.414062 -57.707031 51.191406 -60.019531 48.953125 -61.65625 C 46.710938 -63.300781 43.695312 -64.125 39.90625 -64.125 C 36.519531 -64.125 33.851562 -63.476562 31.90625 -62.1875 C 29.96875 -60.894531 29 -59.097656 29 -56.796875 C 29 -54.410156 30.269531 -52.546875 32.8125 -51.203125 C 35.351562 -49.859375 39.960938 -48.488281 46.640625 -47.09375 C 65.972656 -43.195312 75.640625 -34.875 75.640625 -22.125 C 75.640625 -14.644531 72.625 -8.738281 66.59375 -4.40625 C 60.5625 -0.0703125 52.21875 2.09375 41.5625 2.09375 Z M 41.5625 2.09375 "/></g></g></g></g></g></svg>