<svg xmlns="http://www.w3.org/2000/svg" xmlns:xlink="http://www.w3.org/1999/xlink" width="1000" zoomAndPan="magnify" viewBox="0 0 750 225" height="300" preserveAspectRatio="xMidYMid meet" version="1.0"><defs><g/><clipPath id="d0f8905d00"><path d="M 4 0.679688 L 713.199219 0.679688 L 713.199219 206 L 4 206 Z M 4 0.679688 " clip-rule="nonzero"/></clipPath><clipPath id="94f44bf0e2"><rect x="0" width="710" y="0" height="206"/></clipPath><clipPath id="bd4d7348c8"><path d="M 5 83.824219 L 112.28125 83.824219 L 112.28125 94.941406 L 5 94.941406 Z M 5 83.824219 " clip-rule="nonzero"/></clipPath><clipPath id="5c3276338b"><path d="M 5 98.867188 L 112.28125 98.867188 L 112.28125 109.980469 L 5 109.980469 Z M 5 98.867188 " clip-rule="nonzero"/></clipPath><clipPath id="0023b5e4d8"><rect x="0" width="714" y="0" height="206"/></clipPath></defs><g transform="matrix(1, 0, 0, 1, 14, 19)"><g clip-path="url(#0023b5e4d8)"><g clip-path="url(#d0f8905d00)"><g transform="matrix(1, 0, 0, 1, 4, -0.000000000000007105)"><g clip-path="url(#94f44bf0e2)"><g fill="#1a1a2e" fill-opacity="1"><g transform="translate(0.445314, 166.179622)"><g><path d="M 13 0 L 13 -108.328125 L 55.40625 -108.328125 C 64.164062 -108.328125 71.742188 -106.726562 78.140625 -103.53125 C 84.546875 -100.332031 89.523438 -95.789062 93.078125 -89.90625 C 96.640625 -84.03125 98.421875 -77.117188 98.421875 -69.171875 C 98.421875 -61.328125 96.640625 -54.460938 93.078125 -48.578125 C 89.523438 -42.703125 84.546875 -38.164062 78.140625 -34.96875 C 71.742188 -31.769531 64.164062 -30.171875 55.40625 -30.171875 L 37.609375 -30.171875 L 37.609375 0 Z M 37.453125 -51.375 L 53.390625 -51.375 C 59.785156 -51.375 64.707031 -52.894531 68.15625 -55.9375 C 71.613281 -58.976562 73.34375 -63.335938 73.34375 -69.015625 C 73.34375 -74.691406 71.613281 -79.078125 68.15625 -82.171875 C 64.707031 -85.265625 59.785156 -86.8125 53.390625 -86.8125 L 37.453125 -86.8125 Z M 37.453125 -51.375 "/></g></g></g><g fill="#1a1a2e" fill-opacity="1"><g transform="translate(92.369025, 166.179622)"><g><path d="M 50.140625 2.171875 C 41.472656 2.171875 33.8125 0.363281 27.15625 -3.25 C 20.5 -6.863281 15.3125 -11.894531 11.59375 -18.34375 C 7.882812 -24.789062 6.03125 -32.242188 6.03125 -40.703125 C 6.03125 -49.160156 7.910156 -56.585938 11.671875 -62.984375 C 15.441406 -69.378906 20.65625 -74.378906 27.3125 -77.984375 C 33.96875 -81.597656 41.679688 -83.40625 50.453125 -83.40625 C 59.734375 -83.40625 67.75 -81.34375 74.5 -77.21875 C 81.257812 -73.09375 86.421875 -67.316406 89.984375 -59.890625 C 93.546875 -52.460938 95.066406 -43.796875 94.546875 -33.890625 L 29.40625 -33.890625 C 30.539062 -28.316406 33.015625 -24.0625 36.828125 -21.125 C 40.648438 -18.1875 45.242188 -16.71875 50.609375 -16.71875 C 54.523438 -16.71875 58.109375 -17.460938 61.359375 -18.953125 C 64.609375 -20.453125 67.210938 -22.539062 69.171875 -25.21875 L 93 -25.21875 C 89.5 -16.65625 83.984375 -9.945312 76.453125 -5.09375 C 68.921875 -0.25 60.148438 2.171875 50.140625 2.171875 Z M 29.5625 -48.75 L 71.796875 -48.75 C 70.460938 -53.695312 67.960938 -57.585938 64.296875 -60.421875 C 60.640625 -63.265625 56.078125 -64.6875 50.609375 -64.6875 C 45.441406 -64.6875 40.972656 -63.265625 37.203125 -60.421875 C 33.441406 -57.585938 30.894531 -53.695312 29.5625 -48.75 Z M 29.5625 -48.75 "/></g></g></g><g fill="#1a1a2e" fill-opacity="1"><g transform="translate(183.364241, 166.179622)"><g><path d="M 43.015625 2.171875 C 35.585938 2.171875 29.113281 0.984375 23.59375 -1.390625 C 18.070312 -3.765625 13.789062 -7.066406 10.75 -11.296875 C 7.707031 -15.523438 6.1875 -20.476562 6.1875 -26.15625 L 29.25 -26.15625 C 29.351562 -22.851562 30.640625 -20.21875 33.109375 -18.25 C 35.585938 -16.289062 38.992188 -15.3125 43.328125 -15.3125 C 47.046875 -15.3125 49.9375 -16.007812 52 -17.40625 C 54.0625 -18.800781 55.09375 -20.6875 55.09375 -23.0625 C 55.09375 -25.632812 53.695312 -27.769531 50.90625 -29.46875 C 48.125 -31.175781 43.585938 -32.546875 37.296875 -33.578125 C 26.972656 -35.429688 19.382812 -38.421875 14.53125 -42.546875 C 9.6875 -46.679688 7.265625 -52.101562 7.265625 -58.8125 C 7.265625 -66.75 10.226562 -72.832031 16.15625 -77.0625 C 22.09375 -81.289062 30.53125 -83.40625 41.46875 -83.40625 C 52.300781 -83.40625 60.785156 -81.082031 66.921875 -76.4375 C 73.066406 -71.800781 76.394531 -65.203125 76.90625 -56.640625 L 54.46875 -56.640625 C 54.257812 -59.734375 52.992188 -62.128906 50.671875 -63.828125 C 48.359375 -65.535156 45.238281 -66.390625 41.3125 -66.390625 C 37.8125 -66.390625 35.050781 -65.71875 33.03125 -64.375 C 31.019531 -63.03125 30.015625 -61.175781 30.015625 -58.8125 C 30.015625 -56.332031 31.328125 -54.394531 33.953125 -53 C 36.585938 -51.601562 41.363281 -50.1875 48.28125 -48.75 C 68.289062 -44.726562 78.296875 -36.113281 78.296875 -22.90625 C 78.296875 -15.164062 75.175781 -9.050781 68.9375 -4.5625 C 62.695312 -0.0703125 54.054688 2.171875 43.015625 2.171875 Z M 43.015625 2.171875 "/></g></g></g><g fill="#1a1a2e" fill-opacity="1"><g transform="translate(258.574512, 166.179622)"><g><path d="M 51.6875 2.171875 C 42.707031 2.171875 34.785156 0.363281 27.921875 -3.25 C 21.066406 -6.863281 15.703125 -11.894531 11.828125 -18.34375 C 7.960938 -24.789062 6.03125 -32.242188 6.03125 -40.703125 C 6.03125 -49.160156 7.960938 -56.585938 11.828125 -62.984375 C 15.703125 -69.378906 21.066406 -74.378906 27.921875 -77.984375 C 34.785156 -81.597656 42.707031 -83.40625 51.6875 -83.40625 C 60.664062 -83.40625 68.582031 -81.597656 75.4375 -77.984375 C 82.300781 -74.378906 87.640625 -69.378906 91.453125 -62.984375 C 95.273438 -56.585938 97.1875 -49.160156 97.1875 -40.703125 C 97.1875 -32.242188 95.273438 -24.789062 91.453125 -18.34375 C 87.640625 -11.894531 82.300781 -6.863281 75.4375 -3.25 C 68.582031 0.363281 60.664062 2.171875 51.6875 2.171875 Z M 29.25 -40.703125 C 29.25 -34.097656 31.335938 -28.679688 35.515625 -24.453125 C 39.691406 -20.222656 45.082031 -18.109375 51.6875 -18.109375 C 58.289062 -18.109375 63.65625 -20.222656 67.78125 -24.453125 C 71.90625 -28.679688 73.96875 -34.097656 73.96875 -40.703125 C 73.96875 -47.410156 71.90625 -52.851562 67.78125 -57.03125 C 63.65625 -61.207031 58.289062 -63.296875 51.6875 -63.296875 C 45.082031 -63.296875 39.691406 -61.207031 35.515625 -57.03125 C 31.335938 -52.851562 29.25 -47.410156 29.25 -40.703125 Z M 29.25 -40.703125 "/></g></g></g><g fill="#1a1a2e" fill-opacity="1"><g transform="translate(352.355291, 166.179622)"><g><path d="M 36.359375 0 L 1.546875 -108.328125 L 27.703125 -108.328125 L 38.0625 -75.359375 L 49.515625 -39.765625 L 61.90625 -75.359375 L 73.5 -108.328125 L 96.875 -108.328125 L 108.484375 -75.359375 L 121.015625 -39.3125 L 132.625 -75.359375 L 142.984375 -108.328125 L 168.984375 -108.328125 L 134.015625 0 L 109.875 0 L 85.265625 -70.109375 L 60.65625 0 Z M 36.359375 0 "/></g></g></g><g fill="#1a1a2e" fill-opacity="1"><g transform="translate(502.621281, 166.179622)"><g><path d="M 38.84375 1.546875 C 29.25 1.546875 21.664062 -0.695312 16.09375 -5.1875 C 10.519531 -9.675781 7.734375 -15.835938 7.734375 -23.671875 C 7.734375 -31.203125 10.234375 -37.210938 15.234375 -41.703125 C 20.242188 -46.191406 26.976562 -48.4375 35.4375 -48.4375 L 64.84375 -48.4375 L 64.84375 -52.15625 C 64.84375 -56.175781 63.394531 -59.394531 60.5 -61.8125 C 57.613281 -64.238281 53.847656 -65.453125 49.203125 -65.453125 C 45.390625 -65.453125 42.140625 -64.578125 39.453125 -62.828125 C 36.773438 -61.078125 35.078125 -58.753906 34.359375 -55.859375 L 11.765625 -55.859375 C 13.203125 -64.734375 17.195312 -71.539062 23.75 -76.28125 C 30.300781 -81.03125 38.738281 -83.40625 49.0625 -83.40625 C 61.226562 -83.40625 70.738281 -80.335938 77.59375 -74.203125 C 84.457031 -68.066406 87.890625 -59.632812 87.890625 -48.90625 L 87.890625 0 L 70.40625 0 L 67.78125 -9.4375 C 60.664062 -2.113281 51.019531 1.546875 38.84375 1.546875 Z M 30.953125 -24.609375 C 30.953125 -21.816406 32.160156 -19.566406 34.578125 -17.859375 C 37.003906 -16.160156 40.234375 -15.3125 44.265625 -15.3125 C 50.140625 -15.3125 55.007812 -17.015625 58.875 -20.421875 C 62.75 -23.828125 64.789062 -28.265625 65 -33.734375 L 42.71875 -33.734375 C 39.207031 -33.734375 36.367188 -32.90625 34.203125 -31.25 C 32.035156 -29.601562 30.953125 -27.390625 30.953125 -24.609375 Z M 30.953125 -24.609375 "/></g></g></g><g fill="#1a1a2e" fill-opacity="1"><g transform="translate(591.295182, 166.179622)"><g><path d="M 11.765625 0 L 11.765625 -81.25 L 35.28125 -81.25 L 35.28125 0 Z M 8.359375 -107.546875 C 8.359375 -111.878906 9.773438 -115.410156 12.609375 -118.140625 C 15.453125 -120.878906 19.085938 -122.25 23.515625 -122.25 C 28.054688 -122.25 31.71875 -120.878906 34.5 -118.140625 C 37.289062 -115.410156 38.6875 -111.878906 38.6875 -107.546875 C 38.6875 -103.210938 37.289062 -99.675781 34.5 -96.9375 C 31.71875 -94.207031 28.054688 -92.84375 23.515625 -92.84375 C 19.085938 -92.84375 15.453125 -94.207031 12.609375 -96.9375 C 9.773438 -99.675781 8.359375 -103.210938 8.359375 -107.546875 Z M 8.359375 -107.546875 "/></g></g></g><g fill="#1a1a2e" fill-opacity="1"><g transform="translate(628.900191, 166.179622)"><g><path d="M 43.015625 2.171875 C 35.585938 2.171875 29.113281 0.984375 23.59375 -1.390625 C 18.070312 -3.765625 13.789062 -7.066406 10.75 -11.296875 C 7.707031 -15.523438 6.1875 -20.476562 6.1875 -26.15625 L 29.25 -26.15625 C 29.351562 -22.851562 30.640625 -20.21875 33.109375 -18.25 C 35.585938 -16.289062 38.992188 -15.3125 43.328125 -15.3125 C 47.046875 -15.3125 49.9375 -16.007812 52 -17.40625 C 54.0625 -18.800781 55.09375 -20.6875 55.09375 -23.0625 C 55.09375 -25.632812 53.695312 -27.769531 50.90625 -29.46875 C 48.125 -31.175781 43.585938 -32.546875 37.296875 -33.578125 C 26.972656 -35.429688 19.382812 -38.421875 14.53125 -42.546875 C 9.6875 -46.679688 7.265625 -52.101562 7.265625 -58.8125 C 7.265625 -66.75 10.226562 -72.832031 16.15625 -77.0625 C 22.09375 -81.289062 30.53125 -83.40625 41.46875 -83.40625 C 52.300781 -83.40625 60.785156 -81.082031 66.921875 -76.4375 C 73.066406 -71.800781 76.394531 -65.203125 76.90625 -56.640625 L 54.46875 -56.640625 C 54.257812 -59.734375 52.992188 -62.128906 50.671875 -63.828125 C 48.359375 -65.535156 45.238281 -66.390625 41.3125 -66.390625 C 37.8125 -66.390625 35.050781 -65.71875 33.03125 -64.375 C 31.019531 -63.03125 30.015625 -61.175781 30.015625 -58.8125 C 30.015625 -56.332031 31.328125 -54.394531 33.953125 -53 C 36.585938 -51.601562 41.363281 -50.1875 48.28125 -48.75 C 68.289062 -44.726562 78.296875 -36.113281 78.296875 -22.90625 C 78.296875 -15.164062 75.175781 -9.050781 68.9375 -4.5625 C 62.695312 -0.0703125 54.054688 2.171875 43.015625 2.171875 Z M 43.015625 2.171875 "/></g></g></g></g></g></g><g clip-path="url(#bd4d7348c8)"><path fill="#1a1a2e" d="M 10.660156 83.816406 C 10.292969 83.8125 9.925781 83.84375 9.5625 83.910156 C 9.199219 83.976562 8.847656 84.082031 8.503906 84.21875 C 8.160156 84.355469 7.835938 84.527344 7.527344 84.726562 C 7.21875 84.929688 6.933594 85.160156 6.667969 85.421875 C 6.40625 85.679688 6.171875 85.960938 5.964844 86.269531 C 5.757812 86.574219 5.582031 86.898438 5.441406 87.238281 C 5.296875 87.578125 5.191406 87.929688 5.117188 88.292969 C 5.046875 88.65625 5.007812 89.019531 5.007812 89.390625 C 5.007812 89.757812 5.046875 90.125 5.117188 90.484375 C 5.191406 90.847656 5.296875 91.199219 5.441406 91.539062 C 5.582031 91.878906 5.757812 92.203125 5.964844 92.511719 C 6.171875 92.816406 6.40625 93.097656 6.667969 93.359375 C 6.933594 93.617188 7.21875 93.847656 7.527344 94.050781 C 7.835938 94.253906 8.160156 94.421875 8.503906 94.558594 C 8.847656 94.699219 9.199219 94.800781 9.5625 94.867188 C 9.925781 94.9375 10.292969 94.96875 10.660156 94.960938 L 106.492188 94.960938 C 106.863281 94.96875 107.226562 94.9375 107.589844 94.867188 C 107.953125 94.800781 108.304688 94.699219 108.648438 94.558594 C 108.992188 94.421875 109.316406 94.253906 109.625 94.050781 C 109.933594 93.847656 110.222656 93.617188 110.484375 93.359375 C 110.746094 93.097656 110.980469 92.816406 111.1875 92.511719 C 111.394531 92.203125 111.570312 91.878906 111.710938 91.539062 C 111.855469 91.199219 111.960938 90.847656 112.035156 90.484375 C 112.109375 90.125 112.144531 89.757812 112.144531 89.390625 C 112.144531 89.019531 112.109375 88.65625 112.035156 88.292969 C 111.960938 87.929688 111.855469 87.578125 111.710938 87.238281 C 111.570312 86.898438 111.394531 86.574219 111.1875 86.269531 C 110.980469 85.960938 110.746094 85.679688 110.484375 85.421875 C 110.222656 85.160156 109.933594 84.929688 109.625 84.726562 C 109.316406 84.527344 108.992188 84.355469 108.648438 84.21875 C 108.304688 84.082031 107.953125 83.976562 107.589844 83.910156 C 107.226562 83.84375 106.863281 83.8125 106.492188 83.816406 Z M 10.660156 83.816406 " fill-opacity="1" fill-rule="nonzero"/></g><g clip-path="url(#5c3276338b)"><path fill="#1a1a2e" d="M 10.660156 98.855469 C 10.292969 98.851562 9.925781 98.882812 9.5625 98.949219 C 9.199219 99.019531 8.847656 99.121094 8.503906 99.257812 C 8.160156 99.394531 7.835938 99.566406 7.527344 99.769531 C 7.21875 99.972656 6.933594 100.203125 6.667969 100.460938 C 6.40625 100.71875 6.171875 101.003906 5.964844 101.308594 C 5.757812 101.613281 5.582031 101.9375 5.441406 102.277344 C 5.296875 102.621094 5.191406 102.972656 5.117188 103.332031 C 5.046875 103.695312 5.007812 104.058594 5.007812 104.429688 C 5.007812 104.800781 5.046875 105.164062 5.117188 105.527344 C 5.191406 105.890625 5.296875 106.238281 5.441406 106.582031 C 5.582031 106.921875 5.757812 107.246094 5.964844 107.550781 C 6.171875 107.855469 6.40625 108.140625 6.667969 108.398438 C 6.933594 108.65625 7.21875 108.886719 7.527344 109.089844 C 7.835938 109.292969 8.160156 109.464844 8.503906 109.601562 C 8.847656 109.738281 9.199219 109.839844 9.5625 109.910156 C 9.925781 109.976562 10.292969 110.007812 10.660156 110.003906 L 106.492188 110.003906 C 106.863281 110.007812 107.226562 109.976562 107.589844 109.910156 C 107.953125 109.839844 108.304688 109.738281 108.648438 109.601562 C 108.992188 109.464844 109.316406 109.292969 109.625 109.089844 C 109.933594 108.886719 110.222656 108.65625 110.484375 108.398438 C 110.746094 108.140625 110.980469 107.855469 111.1875 107.550781 C 111.394531 107.246094 111.570312 106.921875 111.710938 106.582031 C 111.855469 106.238281 111.960938 105.890625 112.035156 105.527344 C 112.109375 105.164062 112.144531 104.800781 112.144531 104.429688 C 112.144531 104.058594 112.109375 103.695312 112.035156 103.332031 C 111.960938 102.972656 111.855469 102.621094 111.710938 102.277344 C 111.570312 101.9375 111.394531 101.613281 111.1875 101.308594 C 110.980469 101.003906 110.746094 100.71875 110.484375 100.460938 C 110.222656 100.203125 109.933594 99.972656 109.625 99.769531 C 109.316406 99.566406 108.992188 99.394531 108.648438 99.257812 C 108.304688 99.121094 107.953125 99.019531 107.589844 98.949219 C 107.226562 98.882812 106.863281 98.851562 106.492188 98.855469 Z M 10.660156 98.855469 " fill-opacity="1" fill-rule="nonzero"/></g></g></g></svg>