<svg xmlns="http://www.w3.org/2000/svg" xmlns:xlink="http://www.w3.org/1999/xlink" width="300" zoomAndPan="magnify" viewBox="0 0 224.87999 225" height="300" preserveAspectRatio="xMidYMid meet" version="1.0"><defs><clipPath id="74d189e34e"><path d="M 0 0.0585938 L 224.761719 0.0585938 L 224.761719 224.9375 L 0 224.9375 Z M 0 0.0585938 " clip-rule="nonzero"/></clipPath><clipPath id="66e8321a4e"><path d="M 112.441406 0.0585938 C 50.339844 0.0585938 0 50.402344 0 112.5 C 0 174.597656 50.339844 224.941406 112.441406 224.941406 C 174.539062 224.941406 224.878906 174.597656 224.878906 112.5 C 224.878906 50.402344 174.539062 0.0585938 112.441406 0.0585938 Z M 112.441406 0.0585938 " clip-rule="nonzero"/></clipPath><clipPath id="5031cd81e7"><path d="M 0 0.0585938 L 224.761719 0.0585938 L 224.761719 224.9375 L 0 224.9375 Z M 0 0.0585938 " clip-rule="nonzero"/></clipPath><clipPath id="d0db2610ee"><path d="M 112.441406 0.0585938 C 50.339844 0.0585938 0 50.402344 0 112.5 C 0 174.597656 50.339844 224.941406 112.441406 224.941406 C 174.539062 224.941406 224.878906 174.597656 224.878906 112.5 C 224.878906 50.402344 174.539062 0.0585938 112.441406 0.0585938 Z M 112.441406 0.0585938 " clip-rule="nonzero"/></clipPath><clipPath id="23931e141b"><rect x="0" width="225" y="0" height="225"/></clipPath><clipPath id="0d0cc63376"><path d="M 36 32 L 184 32 L 184 210 L 36 210 Z M 36 32 " clip-rule="nonzero"/></clipPath><clipPath id="2bfbaa2040"><path d="M 24.023438 73.933594 L 152.917969 11.609375 L 221.445312 153.324219 L 92.550781 215.652344 Z M 24.023438 73.933594 " clip-rule="nonzero"/></clipPath><clipPath id="5910307dc0"><path d="M 24.023438 73.933594 L 152.917969 11.609375 L 221.445312 153.324219 L 92.550781 215.652344 Z M 24.023438 73.933594 " clip-rule="nonzero"/></clipPath><clipPath id="bf1f626185"><path d="M 24.023438 73.933594 L 152.917969 11.609375 L 221.445312 153.324219 L 92.550781 215.652344 Z M 24.023438 73.933594 " clip-rule="nonzero"/></clipPath></defs><g clip-path="url(#74d189e34e)"><g clip-path="url(#66e8321a4e)"><g transform="matrix(1, 0, 0, 1, 0, -0.000000000000003234)"><g clip-path="url(#23931e141b)"><g clip-path="url(#5031cd81e7)"><g clip-path="url(#d0db2610ee)"><path fill="#ffffff" d="M 0 0.0585938 L 224.878906 0.0585938 L 224.878906 224.941406 L 0 224.941406 Z M 0 0.0585938 " fill-opacity="1" fill-rule="nonzero"/></g></g></g></g><path stroke-linecap="butt" transform="matrix(0.7496, 0, 0, 0.7496, 0.00000000000004261, 0.060015)" fill="none" stroke-linejoin="miter" d="M 150.001889 -0.001896 C 67.155614 -0.001896 -0.000000000000056843 67.158929 -0.000000000000056843 149.999993 C -0.000000000000056843 232.841057 67.155614 300.001882 150.001889 300.001882 C 232.842953 300.001882 299.998567 232.841057 299.998567 149.999993 C 299.998567 67.158929 232.842953 -0.001896 150.001889 -0.001896 Z M 150.001889 -0.001896 " stroke="#000000" stroke-width="18" stroke-opacity="1" stroke-miterlimit="4"/></g></g><g clip-path="url(#0d0cc63376)"><g clip-path="url(#2bfbaa2040)"><g clip-path="url(#5910307dc0)"><g clip-path="url(#bf1f626185)"><path fill="#000000" d="M 183.523438 75.648438 L 173.957031 80.273438 C 177.496094 103.371094 162.746094 122.910156 129.699219 138.886719 L 111.054688 147.902344 L 134.097656 195.5625 L 105.5 209.390625 L 67.871094 131.570312 L 55.214844 137.691406 L 49.042969 124.933594 L 61.699219 118.8125 L 57.726562 110.59375 L 45.070312 116.714844 L 38.898438 103.957031 L 51.558594 97.835938 L 36.972656 67.671875 L 82.867188 45.480469 C 99.292969 37.539062 112.902344 33.226562 123.695312 32.535156 C 137.628906 31.605469 149.078125 36.210938 158.03125 46.347656 L 167.210938 41.910156 L 173.378906 54.671875 L 166.132812 58.175781 C 166.882812 59.5625 167.492188 60.738281 167.960938 61.703125 C 168.957031 63.769531 169.671875 65.332031 170.105469 66.390625 L 177.351562 62.886719 Z M 122.765625 63.402344 C 115.035156 62.050781 104.441406 64.628906 90.980469 71.136719 L 77.164062 77.816406 L 80.15625 84.003906 Z M 138.679688 76.339844 C 138.023438 74.988281 137.289062 73.714844 136.472656 72.515625 L 86.328125 96.765625 L 90.300781 104.980469 L 140.445312 80.734375 C 140.078125 79.480469 139.492188 78.019531 138.679688 76.339844 Z M 138.5 97.421875 L 96.46875 117.742188 L 99.414062 123.832031 L 115.066406 116.265625 C 126.789062 110.597656 134.601562 104.316406 138.5 97.421875 Z M 138.5 97.421875 " fill-opacity="1" fill-rule="nonzero"/></g></g></g></g></svg>