<svg xmlns="http://www.w3.org/2000/svg" xmlns:xlink="http://www.w3.org/1999/xlink" width="300" zoomAndPan="magnify" viewBox="0 0 224.87999 225" height="300" preserveAspectRatio="xMidYMid meet" version="1.0"><defs><g/><clipPath id="7b5fe4eb1e"><path d="M 1.546875 13.476562 L 217.390625 13.476562 L 217.390625 211.523438 L 1.546875 211.523438 Z M 1.546875 13.476562 " clip-rule="nonzero"/></clipPath><clipPath id="25da0b0f87"><path d="M 146.304688 19.4375 L 146.722656 19.578125 C 158.214844 23.433594 168.992188 29.167969 178.609375 36.542969 L 178.871094 36.742188 C 188.304688 43.980469 196.378906 52.839844 202.710938 62.910156 L 203.011719 63.390625 C 209.136719 73.132812 213.382812 83.933594 215.527344 95.238281 C 217.675781 106.542969 217.683594 118.148438 215.558594 129.453125 L 215.527344 129.605469 C 213.382812 141.007812 209.085938 151.898438 202.863281 161.695312 L 202.710938 161.933594 C 196.378906 171.898438 188.34375 180.675781 178.976562 187.863281 L 178.609375 188.140625 C 168.992188 195.519531 158.214844 201.25 146.722656 205.105469 L 146.304688 205.246094 C 134.535156 209.195312 122.199219 211.210938 109.78125 211.210938 L 108.996094 211.210938 C 96.578125 211.210938 84.242188 209.195312 72.46875 205.246094 L 72.050781 205.105469 C 60.558594 201.25 49.785156 195.519531 40.164062 188.140625 L 39.800781 187.863281 C 30.433594 180.675781 22.398438 171.898438 16.066406 161.933594 L 15.914062 161.695312 C 9.691406 151.898438 5.394531 141.007812 3.246094 129.605469 L 3.21875 129.453125 C 1.09375 118.148438 1.101562 106.542969 3.246094 95.238281 C 5.394531 83.933594 9.636719 73.132812 15.761719 63.390625 L 16.066406 62.910156 C 22.398438 52.839844 30.46875 43.980469 39.90625 36.742188 L 40.164062 36.542969 C 49.785156 29.167969 60.558594 23.433594 72.050781 19.578125 L 72.46875 19.4375 C 84.242188 15.488281 96.578125 13.476562 108.996094 13.476562 L 109.78125 13.476562 C 122.199219 13.476562 134.535156 15.488281 146.304688 19.4375 Z M 146.304688 19.4375 " clip-rule="nonzero"/></clipPath><clipPath id="78f945b240"><path d="M 0.546875 0.476562 L 216.390625 0.476562 L 216.390625 198.386719 L 0.546875 198.386719 Z M 0.546875 0.476562 " clip-rule="nonzero"/></clipPath><clipPath id="5a75214ad7"><path d="M 145.304688 6.4375 L 145.722656 6.578125 C 157.214844 10.433594 167.992188 16.167969 177.609375 23.542969 L 177.871094 23.742188 C 187.304688 30.980469 195.378906 39.839844 201.710938 49.910156 L 202.011719 50.390625 C 208.136719 60.132812 212.382812 70.933594 214.527344 82.238281 C 216.675781 93.542969 216.683594 105.148438 214.558594 116.453125 L 214.527344 116.605469 C 212.382812 128.007812 208.085938 138.898438 201.863281 148.695312 L 201.710938 148.933594 C 195.378906 158.898438 187.34375 167.675781 177.976562 174.863281 L 177.609375 175.140625 C 167.992188 182.519531 157.214844 188.25 145.722656 192.105469 L 145.304688 192.246094 C 133.535156 196.195312 121.199219 198.210938 108.78125 198.210938 L 107.996094 198.210938 C 95.578125 198.210938 83.242188 196.195312 71.46875 192.246094 L 71.050781 192.105469 C 59.558594 188.25 48.785156 182.519531 39.164062 175.140625 L 38.800781 174.863281 C 29.433594 167.675781 21.398438 158.898438 15.066406 148.933594 L 14.914062 148.695312 C 8.691406 138.898438 4.394531 128.007812 2.246094 116.605469 L 2.21875 116.453125 C 0.09375 105.148438 0.101562 93.542969 2.246094 82.238281 C 4.394531 70.933594 8.636719 60.132812 14.761719 50.390625 L 15.066406 49.910156 C 21.398438 39.839844 29.46875 30.980469 38.90625 23.742188 L 39.164062 23.542969 C 48.785156 16.167969 59.558594 10.433594 71.050781 6.578125 L 71.46875 6.4375 C 83.242188 2.488281 95.578125 0.476562 107.996094 0.476562 L 108.78125 0.476562 C 121.199219 0.476562 133.535156 2.488281 145.304688 6.4375 Z M 145.304688 6.4375 " clip-rule="nonzero"/></clipPath><clipPath id="4845f26c41"><rect x="0" width="217" y="0" height="199"/></clipPath><clipPath id="a5cb9ce71f"><path d="M 1.371094 13.476562 L 217.605469 13.476562 L 217.605469 211.371094 L 1.371094 211.371094 Z M 1.371094 13.476562 " clip-rule="nonzero"/></clipPath><clipPath id="f3a75f9f7f"><path d="M 146.308594 19.4375 L 146.722656 19.578125 C 158.21875 23.433594 168.992188 29.167969 178.609375 36.542969 L 178.871094 36.742188 C 188.304688 43.980469 196.378906 52.839844 202.710938 62.910156 L 203.011719 63.390625 C 209.136719 73.132812 213.382812 83.933594 215.527344 95.238281 C 217.675781 106.539062 217.683594 118.144531 215.554688 129.453125 L 215.527344 129.605469 C 213.382812 141.007812 209.082031 151.898438 202.859375 161.691406 L 202.710938 161.933594 C 196.378906 171.898438 188.34375 180.675781 178.976562 187.859375 L 178.609375 188.140625 C 168.992188 195.515625 158.21875 201.25 146.722656 205.105469 L 146.308594 205.246094 C 134.535156 209.195312 122.199219 211.207031 109.78125 211.207031 L 108.996094 211.207031 C 96.578125 211.207031 84.242188 209.195312 72.472656 205.246094 L 72.054688 205.105469 C 60.5625 201.25 49.785156 195.515625 40.167969 188.140625 L 39.804688 187.859375 C 30.433594 180.675781 22.398438 171.898438 16.070312 161.933594 L 15.917969 161.691406 C 9.695312 151.898438 5.394531 141.007812 3.25 129.605469 L 3.222656 129.453125 C 1.09375 118.144531 1.105469 106.539062 3.25 95.238281 C 5.394531 83.933594 9.640625 73.132812 15.765625 63.390625 L 16.070312 62.910156 C 22.398438 52.839844 30.472656 43.980469 39.90625 36.742188 L 40.167969 36.542969 C 49.785156 29.167969 60.5625 23.433594 72.054688 19.578125 L 72.472656 19.4375 C 84.242188 15.488281 96.578125 13.476562 108.996094 13.476562 L 109.78125 13.476562 C 122.199219 13.476562 134.535156 15.488281 146.308594 19.4375 Z M 146.308594 19.4375 " clip-rule="nonzero"/></clipPath><clipPath id="0e1358acf0"><path d="M 17 0.0585938 L 222 0.0585938 L 222 224.9375 L 17 224.9375 Z M 17 0.0585938 " clip-rule="nonzero"/></clipPath><clipPath id="3edb4dcfaa"><path d="M 3 0.0585938 L 204.640625 0.0585938 L 204.640625 224.9375 L 3 224.9375 Z M 3 0.0585938 " clip-rule="nonzero"/></clipPath><clipPath id="32654c1670"><rect x="0" width="202" y="0" height="225"/></clipPath><clipPath id="b4336718b4"><path d="M 52 69 L 163 69 L 163 116 L 52 116 Z M 52 69 " clip-rule="nonzero"/></clipPath><clipPath id="2122214d16"><path d="M 54.078125 68.300781 L 163.894531 105.324219 L 160.042969 116.746094 L 50.226562 79.722656 Z M 54.078125 68.300781 " clip-rule="nonzero"/></clipPath><clipPath id="005fc7a232"><path d="M 54.078125 68.300781 L 163.894531 105.324219 L 160.042969 116.746094 L 50.226562 79.722656 Z M 54.078125 68.300781 " clip-rule="nonzero"/></clipPath><clipPath id="6a4eb706ca"><path d="M 46 85 L 158 85 L 158 131 L 46 131 Z M 46 85 " clip-rule="nonzero"/></clipPath><clipPath id="133231ee65"><path d="M 48.878906 83.726562 L 158.695312 120.75 L 154.84375 132.171875 L 45.027344 95.148438 Z M 48.878906 83.726562 " clip-rule="nonzero"/></clipPath><clipPath id="4ef64d7548"><path d="M 48.878906 83.726562 L 158.695312 120.75 L 154.84375 132.171875 L 45.027344 95.148438 Z M 48.878906 83.726562 " clip-rule="nonzero"/></clipPath><clipPath id="2d4079737c"><rect x="0" width="205" y="0" height="225"/></clipPath></defs><g clip-path="url(#7b5fe4eb1e)"><g clip-path="url(#25da0b0f87)"><g transform="matrix(1, 0, 0, 1, 1, 13)"><g clip-path="url(#4845f26c41)"><g clip-path="url(#78f945b240)"><g clip-path="url(#5a75214ad7)"><path fill="#1a1a2e" d="M -1 0.476562 L 217.9375 0.476562 L 217.9375 198.523438 L -1 198.523438 Z M -1 0.476562 " fill-opacity="1" fill-rule="nonzero"/></g></g></g></g></g></g><g clip-path="url(#a5cb9ce71f)"><g clip-path="url(#f3a75f9f7f)"><path stroke-linecap="butt" transform="matrix(0.7496, 0, 0, 0.7496, 0.00234043, 13.475399)" fill="none" stroke-linejoin="miter" d="M 195.179129 7.953712 L 195.731507 8.141312 C 211.067814 13.28468 225.440065 20.934595 238.269826 30.773177 L 238.61897 31.038944 C 251.203809 40.695137 261.97518 52.513942 270.422395 65.948192 L 270.823651 66.589159 C 278.994677 79.585676 284.659157 93.994404 287.520058 109.070155 C 290.386171 124.151118 290.396593 139.633335 287.556536 154.719509 L 287.520058 154.922742 C 284.659157 170.133982 278.921721 184.662566 270.620418 197.726827 L 270.422395 198.049916 C 261.97518 211.343467 251.25592 223.052838 238.75967 232.636076 L 238.269826 233.011276 C 225.440065 242.849858 211.067814 250.499772 195.731507 255.643141 L 195.179129 255.830741 C 179.472834 261.099177 163.016137 263.7829 146.450008 263.7829 L 145.402574 263.7829 C 128.836445 263.7829 112.379749 261.099177 96.678664 255.830741 L 96.121075 255.643141 C 80.78998 250.499772 66.412518 242.849858 53.582757 233.011276 L 53.092912 232.636076 C 40.596662 223.052838 29.877402 211.343467 21.435398 198.049916 L 21.232165 197.726827 C 12.930861 184.662566 7.193425 170.133982 4.332524 154.922742 L 4.296046 154.719509 C 1.455989 139.633335 1.471623 124.151118 4.332524 109.070155 C 7.193425 93.994404 12.857906 79.585676 21.028931 66.589159 L 21.435398 65.948192 C 29.877402 52.513942 40.648773 40.695137 53.233612 31.038944 L 53.582757 30.773177 C 66.412518 20.934595 80.78998 13.28468 96.121075 8.141312 L 96.678664 7.953712 C 112.379749 2.685276 128.836445 0.0015525 145.402574 0.0015525 L 146.450008 0.0015525 C 163.016137 0.0015525 179.472834 2.685276 195.179129 7.953712 Z M 195.179129 7.953712 " stroke="#ffffff" stroke-width="4" stroke-opacity="1" stroke-miterlimit="4"/></g></g><g clip-path="url(#0e1358acf0)"><g transform="matrix(1, 0, 0, 1, 17, -0.000000000000003234)"><g clip-path="url(#2d4079737c)"><g clip-path="url(#3edb4dcfaa)"><g transform="matrix(1, 0, 0, 1, 3, -0.000000000000003234)"><g clip-path="url(#32654c1670)"><g fill="#ffffff" fill-opacity="1"><g transform="translate(21.473695, 153.64588)"><g><path d="M 13.328125 4.5 L 50.78125 -106.609375 L 94.28125 -91.953125 C 103.269531 -88.921875 110.488281 -84.65625 115.9375 -79.15625 C 121.394531 -73.664062 124.929688 -67.289062 126.546875 -60.03125 C 128.171875 -52.769531 127.613281 -45.066406 124.875 -36.921875 C 122.164062 -28.878906 117.960938 -22.457031 112.265625 -17.65625 C 106.578125 -12.851562 99.898438 -9.914062 92.234375 -8.84375 C 84.578125 -7.769531 76.253906 -8.75 67.265625 -11.78125 L 49 -17.9375 L 38.5625 13 Z M 56.171875 -39.734375 L 72.515625 -34.234375 C 79.078125 -32.015625 84.65625 -31.867188 89.25 -33.796875 C 93.851562 -35.734375 97.132812 -39.609375 99.09375 -45.421875 C 101.0625 -51.242188 100.804688 -56.335938 98.328125 -60.703125 C 95.847656 -65.078125 91.328125 -68.375 84.765625 -70.59375 L 68.421875 -76.09375 Z M 56.171875 -39.734375 "/></g></g></g><g fill="#ffffff" fill-opacity="1"><g transform="translate(115.263458, 185.26628)"><g/></g></g></g></g></g><g clip-path="url(#b4336718b4)"><g clip-path="url(#2122214d16)"><g clip-path="url(#005fc7a232)"><path fill="#ffffff" d="M 60.042969 70.300781 C 59.667969 70.167969 59.28125 70.074219 58.882812 70.019531 C 58.488281 69.960938 58.089844 69.945312 57.691406 69.96875 C 57.292969 69.992188 56.898438 70.050781 56.511719 70.152344 C 56.125 70.253906 55.753906 70.390625 55.394531 70.566406 C 55.035156 70.742188 54.695312 70.949219 54.378906 71.191406 C 54.0625 71.433594 53.769531 71.707031 53.507812 72.007812 C 53.242188 72.308594 53.011719 72.628906 52.808594 72.976562 C 52.609375 73.320312 52.445312 73.683594 52.320312 74.0625 C 52.191406 74.441406 52.101562 74.828125 52.050781 75.226562 C 52 75.621094 51.988281 76.019531 52.019531 76.417969 C 52.046875 76.816406 52.113281 77.210938 52.21875 77.59375 C 52.328125 77.980469 52.46875 78.351562 52.648438 78.707031 C 52.828125 79.066406 53.042969 79.398438 53.289062 79.714844 C 53.535156 80.027344 53.8125 80.316406 54.117188 80.574219 C 54.417969 80.835938 54.746094 81.0625 55.09375 81.257812 C 55.445312 81.453125 55.808594 81.609375 56.1875 81.734375 L 154.476562 114.871094 C 154.855469 115.003906 155.242188 115.097656 155.636719 115.15625 C 156.03125 115.210938 156.429688 115.226562 156.828125 115.203125 C 157.226562 115.183594 157.621094 115.121094 158.007812 115.019531 C 158.394531 114.917969 158.765625 114.78125 159.125 114.605469 C 159.484375 114.429688 159.824219 114.222656 160.140625 113.980469 C 160.460938 113.738281 160.75 113.464844 161.015625 113.167969 C 161.277344 112.867188 161.511719 112.542969 161.710938 112.195312 C 161.910156 111.851562 162.074219 111.488281 162.203125 111.109375 C 162.328125 110.730469 162.417969 110.34375 162.46875 109.945312 C 162.519531 109.550781 162.53125 109.152344 162.503906 108.753906 C 162.472656 108.355469 162.40625 107.964844 162.300781 107.578125 C 162.195312 107.191406 162.050781 106.820312 161.871094 106.464844 C 161.691406 106.109375 161.476562 105.773438 161.230469 105.457031 C 160.984375 105.144531 160.710938 104.855469 160.40625 104.597656 C 160.101562 104.335938 159.773438 104.109375 159.425781 103.914062 C 159.078125 103.71875 158.710938 103.5625 158.332031 103.441406 Z M 60.042969 70.300781 " fill-opacity="1" fill-rule="nonzero"/></g></g></g><g clip-path="url(#6a4eb706ca)"><g clip-path="url(#133231ee65)"><g clip-path="url(#4ef64d7548)"><path fill="#ffffff" d="M 54.84375 85.726562 C 54.464844 85.59375 54.078125 85.5 53.683594 85.445312 C 53.289062 85.386719 52.890625 85.371094 52.492188 85.394531 C 52.09375 85.417969 51.699219 85.480469 51.3125 85.578125 C 50.925781 85.679688 50.554688 85.816406 50.195312 85.992188 C 49.835938 86.167969 49.496094 86.375 49.179688 86.621094 C 48.859375 86.863281 48.570312 87.132812 48.304688 87.433594 C 48.042969 87.734375 47.808594 88.054688 47.609375 88.402344 C 47.410156 88.75 47.246094 89.109375 47.117188 89.488281 C 46.992188 89.867188 46.902344 90.253906 46.851562 90.652344 C 46.800781 91.046875 46.789062 91.445312 46.816406 91.84375 C 46.847656 92.242188 46.914062 92.636719 47.019531 93.019531 C 47.125 93.40625 47.269531 93.777344 47.449219 94.132812 C 47.628906 94.492188 47.84375 94.828125 48.089844 95.140625 C 48.335938 95.457031 48.609375 95.742188 48.914062 96.003906 C 49.21875 96.261719 49.546875 96.488281 49.894531 96.683594 C 50.242188 96.878906 50.609375 97.039062 50.988281 97.160156 L 149.277344 130.296875 C 149.652344 130.429688 150.039062 130.523438 150.4375 130.582031 C 150.832031 130.636719 151.230469 130.652344 151.628906 130.628906 C 152.027344 130.609375 152.421875 130.546875 152.808594 130.445312 C 153.195312 130.34375 153.566406 130.207031 153.925781 130.03125 C 154.285156 129.855469 154.625 129.648438 154.941406 129.40625 C 155.257812 129.164062 155.550781 128.890625 155.8125 128.59375 C 156.078125 128.292969 156.308594 127.96875 156.511719 127.621094 C 156.710938 127.277344 156.875 126.914062 157 126.535156 C 157.128906 126.15625 157.21875 125.769531 157.269531 125.371094 C 157.320312 124.976562 157.332031 124.578125 157.300781 124.179688 C 157.273438 123.78125 157.207031 123.390625 157.101562 123.003906 C 156.992188 122.617188 156.851562 122.246094 156.671875 121.890625 C 156.492188 121.535156 156.277344 121.199219 156.03125 120.882812 C 155.785156 120.570312 155.507812 120.28125 155.203125 120.023438 C 154.902344 119.761719 154.574219 119.535156 154.226562 119.339844 C 153.875 119.144531 153.511719 118.988281 153.132812 118.867188 Z M 54.84375 85.726562 " fill-opacity="1" fill-rule="nonzero"/></g></g></g></g></g></g></svg>